<mxfile host="app.diagrams.net" modified="2020-05-20T09:07:21.820Z" agent="5.0 (Windows)" etag="pH_X2biJRYCSToCADfs2" version="13.1.3" type="github">
  <diagram id="diZMRqRUsIZvZlMwBqrH" name="Page-1">
    <mxGraphModel dx="476" dy="361" grid="1" gridSize="10" guides="1" tooltips="1" connect="1" arrows="1" fold="1" page="0" pageScale="1" pageWidth="827" pageHeight="1169" math="1" shadow="0">
      <root>
        <mxCell id="0" />
        <mxCell id="1" parent="0" />
        <mxCell id="22y18X0Yj5JrSiVgaEgC-5" value="" style="shape=parallelogram;perimeter=parallelogramPerimeter;whiteSpace=wrap;html=1;size=0.4444444444444444;fillColor=#f5f5f5;strokeColor=#666666;fontColor=#333333;" vertex="1" parent="1">
          <mxGeometry x="1400" y="700" width="200" height="99" as="geometry" />
        </mxCell>
        <mxCell id="xD0XYG2H3usSobOG9yuR-62" value="" style="rounded=1;whiteSpace=wrap;html=1;strokeColor=#6c8ebf;fillColor=#dae8fc;" parent="1" vertex="1">
          <mxGeometry x="178.5" y="663" width="524" height="136" as="geometry" />
        </mxCell>
        <mxCell id="xD0XYG2H3usSobOG9yuR-56" value="" style="rounded=1;whiteSpace=wrap;html=1;strokeColor=#d6b656;fillColor=#fff2cc;" parent="1" vertex="1">
          <mxGeometry x="61" y="337" width="759" height="128" as="geometry" />
        </mxCell>
        <mxCell id="xD0XYG2H3usSobOG9yuR-5" value="&lt;font style=&quot;font-size: 20px&quot;&gt;&lt;i&gt;&lt;b&gt;x&lt;/b&gt;&lt;/i&gt;&lt;/font&gt;" style="text;html=1;align=center;verticalAlign=middle;resizable=0;points=[];autosize=1;" parent="1" vertex="1">
          <mxGeometry x="110" y="160" width="30" height="20" as="geometry" />
        </mxCell>
        <mxCell id="xD0XYG2H3usSobOG9yuR-9" value="&lt;i&gt;&lt;b&gt;S1&lt;/b&gt;&lt;/i&gt;" style="text;html=1;align=center;verticalAlign=middle;resizable=0;points=[];autosize=1;" parent="1" vertex="1">
          <mxGeometry x="260" y="132" width="30" height="20" as="geometry" />
        </mxCell>
        <mxCell id="xD0XYG2H3usSobOG9yuR-11" value="&lt;i&gt;&lt;b&gt;S3&lt;/b&gt;&lt;/i&gt;" style="text;html=1;align=center;verticalAlign=middle;resizable=0;points=[];autosize=1;" parent="1" vertex="1">
          <mxGeometry x="250" y="240" width="30" height="20" as="geometry" />
        </mxCell>
        <mxCell id="xD0XYG2H3usSobOG9yuR-12" value="" style="rounded=0;whiteSpace=wrap;html=1;fillColor=#e1d5e7;strokeColor=#9673a6;" parent="1" vertex="1">
          <mxGeometry x="320" y="190" width="130" height="30" as="geometry" />
        </mxCell>
        <mxCell id="xD0XYG2H3usSobOG9yuR-13" value="" style="rounded=0;whiteSpace=wrap;html=1;fillColor=#e1d5e7;strokeColor=#9673a6;" parent="1" vertex="1">
          <mxGeometry x="320" y="127" width="130" height="30" as="geometry" />
        </mxCell>
        <mxCell id="xD0XYG2H3usSobOG9yuR-14" value="" style="rounded=0;whiteSpace=wrap;html=1;fillColor=#e1d5e7;strokeColor=#9673a6;" parent="1" vertex="1">
          <mxGeometry x="100" y="190" width="130" height="30" as="geometry" />
        </mxCell>
        <mxCell id="xD0XYG2H3usSobOG9yuR-15" value="" style="rounded=0;whiteSpace=wrap;html=1;fillColor=#e1d5e7;strokeColor=#9673a6;" parent="1" vertex="1">
          <mxGeometry x="320" y="250" width="130" height="30" as="geometry" />
        </mxCell>
        <mxCell id="xD0XYG2H3usSobOG9yuR-16" value="" style="endArrow=classic;html=1;exitX=1;exitY=0.5;exitDx=0;exitDy=0;entryX=0;entryY=0.5;entryDx=0;entryDy=0;" parent="1" source="xD0XYG2H3usSobOG9yuR-14" target="xD0XYG2H3usSobOG9yuR-13" edge="1">
          <mxGeometry width="50" height="50" relative="1" as="geometry">
            <mxPoint x="340" y="290" as="sourcePoint" />
            <mxPoint x="390" y="240" as="targetPoint" />
          </mxGeometry>
        </mxCell>
        <mxCell id="xD0XYG2H3usSobOG9yuR-17" value="" style="endArrow=classic;html=1;exitX=1;exitY=0.5;exitDx=0;exitDy=0;entryX=0;entryY=0.5;entryDx=0;entryDy=0;" parent="1" source="xD0XYG2H3usSobOG9yuR-14" target="xD0XYG2H3usSobOG9yuR-12" edge="1">
          <mxGeometry width="50" height="50" relative="1" as="geometry">
            <mxPoint x="340" y="290" as="sourcePoint" />
            <mxPoint x="390" y="240" as="targetPoint" />
          </mxGeometry>
        </mxCell>
        <mxCell id="xD0XYG2H3usSobOG9yuR-18" value="" style="endArrow=classic;html=1;exitX=1;exitY=0.5;exitDx=0;exitDy=0;entryX=0;entryY=0.5;entryDx=0;entryDy=0;" parent="1" source="xD0XYG2H3usSobOG9yuR-14" target="xD0XYG2H3usSobOG9yuR-15" edge="1">
          <mxGeometry width="50" height="50" relative="1" as="geometry">
            <mxPoint x="340" y="290" as="sourcePoint" />
            <mxPoint x="390" y="240" as="targetPoint" />
          </mxGeometry>
        </mxCell>
        <mxCell id="xD0XYG2H3usSobOG9yuR-19" value="&lt;i&gt;&lt;b&gt;S2&lt;/b&gt;&lt;/i&gt;" style="text;whiteSpace=wrap;html=1;" parent="1" vertex="1">
          <mxGeometry x="270" y="180" width="40" height="30" as="geometry" />
        </mxCell>
        <mxCell id="xD0XYG2H3usSobOG9yuR-20" value="" style="ellipse;whiteSpace=wrap;html=1;aspect=fixed;fillColor=#e1d5e7;strokeColor=#9673a6;" parent="1" vertex="1">
          <mxGeometry x="500" y="127" width="30" height="30" as="geometry" />
        </mxCell>
        <mxCell id="xD0XYG2H3usSobOG9yuR-21" value="" style="ellipse;whiteSpace=wrap;html=1;aspect=fixed;fillColor=#e1d5e7;strokeColor=#9673a6;" parent="1" vertex="1">
          <mxGeometry x="500" y="190" width="30" height="30" as="geometry" />
        </mxCell>
        <mxCell id="xD0XYG2H3usSobOG9yuR-22" value="" style="ellipse;whiteSpace=wrap;html=1;aspect=fixed;fillColor=#e1d5e7;strokeColor=#9673a6;" parent="1" vertex="1">
          <mxGeometry x="500" y="250" width="30" height="30" as="geometry" />
        </mxCell>
        <mxCell id="xD0XYG2H3usSobOG9yuR-23" value="" style="endArrow=classic;html=1;exitX=1;exitY=0.5;exitDx=0;exitDy=0;entryX=0;entryY=0.5;entryDx=0;entryDy=0;" parent="1" source="xD0XYG2H3usSobOG9yuR-13" target="xD0XYG2H3usSobOG9yuR-20" edge="1">
          <mxGeometry width="50" height="50" relative="1" as="geometry">
            <mxPoint x="340" y="290" as="sourcePoint" />
            <mxPoint x="390" y="240" as="targetPoint" />
          </mxGeometry>
        </mxCell>
        <mxCell id="xD0XYG2H3usSobOG9yuR-25" value="" style="endArrow=classic;html=1;exitX=1;exitY=0.5;exitDx=0;exitDy=0;entryX=0;entryY=0.5;entryDx=0;entryDy=0;" parent="1" source="xD0XYG2H3usSobOG9yuR-12" target="xD0XYG2H3usSobOG9yuR-21" edge="1">
          <mxGeometry width="50" height="50" relative="1" as="geometry">
            <mxPoint x="450" y="142" as="sourcePoint" />
            <mxPoint x="500" y="142" as="targetPoint" />
          </mxGeometry>
        </mxCell>
        <mxCell id="xD0XYG2H3usSobOG9yuR-26" value="" style="endArrow=classic;html=1;exitX=1;exitY=0.5;exitDx=0;exitDy=0;entryX=0;entryY=0.5;entryDx=0;entryDy=0;" parent="1" source="xD0XYG2H3usSobOG9yuR-15" target="xD0XYG2H3usSobOG9yuR-22" edge="1">
          <mxGeometry width="50" height="50" relative="1" as="geometry">
            <mxPoint x="450" y="205" as="sourcePoint" />
            <mxPoint x="500" y="205" as="targetPoint" />
          </mxGeometry>
        </mxCell>
        <mxCell id="xD0XYG2H3usSobOG9yuR-27" value="&lt;b&gt;||&lt;i&gt;L&lt;/i&gt;&lt;sub&gt;2&lt;/sub&gt;||&lt;/b&gt;" style="text;html=1;align=center;verticalAlign=middle;resizable=0;points=[];autosize=1;" parent="1" vertex="1">
          <mxGeometry x="495" y="100" width="40" height="20" as="geometry" />
        </mxCell>
        <mxCell id="xD0XYG2H3usSobOG9yuR-28" value="&lt;font style=&quot;font-size: 20px&quot;&gt;&lt;i&gt;&lt;b&gt;v&lt;/b&gt;&lt;/i&gt;&lt;sub&gt;1&lt;/sub&gt;&lt;/font&gt;" style="text;html=1;align=center;verticalAlign=middle;resizable=0;points=[];autosize=1;" parent="1" vertex="1">
          <mxGeometry x="377" y="97" width="30" height="23" as="geometry" />
        </mxCell>
        <mxCell id="xD0XYG2H3usSobOG9yuR-29" value="&lt;font style=&quot;font-size: 20px&quot;&gt;&lt;i&gt;&lt;b&gt;v&lt;/b&gt;&lt;/i&gt;&lt;sub&gt;2&lt;/sub&gt;&lt;/font&gt;" style="text;html=1;align=center;verticalAlign=middle;resizable=0;points=[];autosize=1;" parent="1" vertex="1">
          <mxGeometry x="377" y="165" width="30" height="23" as="geometry" />
        </mxCell>
        <mxCell id="xD0XYG2H3usSobOG9yuR-30" value="&lt;font style=&quot;font-size: 20px&quot;&gt;&lt;i&gt;&lt;b&gt;v&lt;/b&gt;&lt;/i&gt;&lt;sub&gt;3&lt;/sub&gt;&lt;/font&gt;" style="text;html=1;align=center;verticalAlign=middle;resizable=0;points=[];autosize=1;" parent="1" vertex="1">
          <mxGeometry x="377" y="225" width="30" height="23" as="geometry" />
        </mxCell>
        <mxCell id="xD0XYG2H3usSobOG9yuR-33" value="" style="edgeStyle=orthogonalEdgeStyle;rounded=0;orthogonalLoop=1;jettySize=auto;html=1;entryX=0.5;entryY=1;entryDx=0;entryDy=0;" parent="1" source="xD0XYG2H3usSobOG9yuR-31" target="xD0XYG2H3usSobOG9yuR-56" edge="1">
          <mxGeometry relative="1" as="geometry">
            <mxPoint x="441" y="494" as="targetPoint" />
          </mxGeometry>
        </mxCell>
        <mxCell id="xD0XYG2H3usSobOG9yuR-35" value="" style="edgeStyle=orthogonalEdgeStyle;rounded=0;orthogonalLoop=1;jettySize=auto;html=1;" parent="1" source="xD0XYG2H3usSobOG9yuR-31" target="xD0XYG2H3usSobOG9yuR-34" edge="1">
          <mxGeometry relative="1" as="geometry" />
        </mxCell>
        <mxCell id="xD0XYG2H3usSobOG9yuR-60" style="edgeStyle=orthogonalEdgeStyle;rounded=0;orthogonalLoop=1;jettySize=auto;html=1;exitX=1;exitY=0.5;exitDx=0;exitDy=0;" parent="1" source="xD0XYG2H3usSobOG9yuR-31" target="xD0XYG2H3usSobOG9yuR-50" edge="1">
          <mxGeometry relative="1" as="geometry" />
        </mxCell>
        <mxCell id="xD0XYG2H3usSobOG9yuR-65" style="edgeStyle=orthogonalEdgeStyle;rounded=0;orthogonalLoop=1;jettySize=auto;html=1;exitX=0.5;exitY=1;exitDx=0;exitDy=0;" parent="1" source="xD0XYG2H3usSobOG9yuR-31" target="xD0XYG2H3usSobOG9yuR-62" edge="1">
          <mxGeometry relative="1" as="geometry" />
        </mxCell>
        <mxCell id="xD0XYG2H3usSobOG9yuR-31" value="&lt;font style=&quot;font-size: 22px&quot;&gt;CapsNet&lt;/font&gt;" style="rounded=1;whiteSpace=wrap;html=1;" parent="1" vertex="1">
          <mxGeometry x="347" y="529" width="187" height="57" as="geometry" />
        </mxCell>
        <mxCell id="xD0XYG2H3usSobOG9yuR-36" value="&lt;font style=&quot;font-size: 22px&quot;&gt;机器翻译&lt;/font&gt;" style="rounded=1;whiteSpace=wrap;html=1;" parent="1" vertex="1">
          <mxGeometry x="486" y="675" width="187" height="57" as="geometry" />
        </mxCell>
        <mxCell id="xD0XYG2H3usSobOG9yuR-34" value="&lt;font style=&quot;font-size: 22px&quot;&gt;交通流预测&lt;/font&gt;" style="rounded=1;whiteSpace=wrap;html=1;" parent="1" vertex="1">
          <mxGeometry x="80" y="529" width="187" height="57" as="geometry" />
        </mxCell>
        <mxCell id="xD0XYG2H3usSobOG9yuR-32" value="&lt;font style=&quot;font-size: 22px&quot;&gt;人脸表情识别&lt;/font&gt;" style="rounded=1;whiteSpace=wrap;html=1;" parent="1" vertex="1">
          <mxGeometry x="347" y="392" width="187" height="57" as="geometry" />
        </mxCell>
        <mxCell id="xD0XYG2H3usSobOG9yuR-43" value="&lt;font style=&quot;font-size: 22px&quot;&gt;肺癌检测&lt;/font&gt;" style="rounded=1;whiteSpace=wrap;html=1;" parent="1" vertex="1">
          <mxGeometry x="614" y="392" width="187" height="57" as="geometry" />
        </mxCell>
        <mxCell id="xD0XYG2H3usSobOG9yuR-46" value="&lt;font style=&quot;font-size: 22px&quot;&gt;手写文字辨识&lt;/font&gt;" style="rounded=1;whiteSpace=wrap;html=1;" parent="1" vertex="1">
          <mxGeometry x="80" y="394" width="187" height="57" as="geometry" />
        </mxCell>
        <mxCell id="xD0XYG2H3usSobOG9yuR-48" value="&lt;font style=&quot;font-size: 22px&quot;&gt;关系提取&lt;/font&gt;" style="rounded=1;whiteSpace=wrap;html=1;" parent="1" vertex="1">
          <mxGeometry x="213" y="675" width="187" height="57" as="geometry" />
        </mxCell>
        <mxCell id="xD0XYG2H3usSobOG9yuR-50" value="&lt;font style=&quot;font-size: 22px&quot;&gt;信号识别&lt;/font&gt;" style="rounded=1;whiteSpace=wrap;html=1;" parent="1" vertex="1">
          <mxGeometry x="614" y="529" width="187" height="57" as="geometry" />
        </mxCell>
        <mxCell id="xD0XYG2H3usSobOG9yuR-59" value="&lt;font style=&quot;font-size: 22px&quot;&gt;图像处理&lt;/font&gt;" style="text;html=1;strokeColor=none;fillColor=none;align=center;verticalAlign=middle;whiteSpace=wrap;rounded=0;" parent="1" vertex="1">
          <mxGeometry x="99" y="358" width="126" height="20" as="geometry" />
        </mxCell>
        <mxCell id="xD0XYG2H3usSobOG9yuR-63" value="&lt;font style=&quot;font-size: 22px&quot;&gt;NLP&lt;/font&gt;" style="text;html=1;strokeColor=none;fillColor=none;align=center;verticalAlign=middle;whiteSpace=wrap;rounded=0;" parent="1" vertex="1">
          <mxGeometry x="239" y="754" width="40" height="20" as="geometry" />
        </mxCell>
        <mxCell id="xD0XYG2H3usSobOG9yuR-66" value="" style="rounded=0;whiteSpace=wrap;html=1;strokeColor=#9673a6;fillColor=#e1d5e7;" parent="1" vertex="1">
          <mxGeometry x="1247" y="413" width="368" height="50" as="geometry" />
        </mxCell>
        <mxCell id="22y18X0Yj5JrSiVgaEgC-1" value="" style="endArrow=classic;html=1;entryX=0.443;entryY=0.002;entryDx=0;entryDy=0;entryPerimeter=0;" edge="1" parent="1" target="22y18X0Yj5JrSiVgaEgC-5">
          <mxGeometry width="50" height="50" relative="1" as="geometry">
            <mxPoint x="1400" y="799" as="sourcePoint" />
            <mxPoint x="1499" y="703" as="targetPoint" />
          </mxGeometry>
        </mxCell>
        <mxCell id="22y18X0Yj5JrSiVgaEgC-2" value="" style="endArrow=classic;html=1;entryX=0.555;entryY=1.003;entryDx=0;entryDy=0;entryPerimeter=0;" edge="1" parent="1" target="22y18X0Yj5JrSiVgaEgC-5">
          <mxGeometry width="50" height="50" relative="1" as="geometry">
            <mxPoint x="1400" y="799" as="sourcePoint" />
            <mxPoint x="1510" y="798" as="targetPoint" />
          </mxGeometry>
        </mxCell>
        <mxCell id="22y18X0Yj5JrSiVgaEgC-3" value="&lt;font style=&quot;font-size: 22px&quot;&gt;&lt;i&gt;&lt;b&gt;x&lt;/b&gt;&lt;/i&gt;&lt;/font&gt;" style="text;html=1;align=center;verticalAlign=middle;resizable=0;points=[];autosize=1;" vertex="1" parent="1">
          <mxGeometry x="1490" y="810" width="30" height="20" as="geometry" />
        </mxCell>
        <mxCell id="22y18X0Yj5JrSiVgaEgC-4" value="&lt;font style=&quot;font-size: 22px&quot;&gt;&lt;i&gt;&lt;b&gt;w&lt;br&gt;&lt;/b&gt;&lt;/i&gt;&lt;/font&gt;" style="text;html=1;align=center;verticalAlign=middle;resizable=0;points=[];autosize=1;" vertex="1" parent="1">
          <mxGeometry x="1440" y="693.5" width="30" height="20" as="geometry" />
        </mxCell>
        <mxCell id="22y18X0Yj5JrSiVgaEgC-6" value="" style="endArrow=classic;html=1;" edge="1" parent="1">
          <mxGeometry width="50" height="50" relative="1" as="geometry">
            <mxPoint x="1400" y="800" as="sourcePoint" />
            <mxPoint x="1400" y="680" as="targetPoint" />
          </mxGeometry>
        </mxCell>
        <mxCell id="22y18X0Yj5JrSiVgaEgC-8" value="&lt;div&gt;$$\theta$$&lt;/div&gt;" style="text;html=1;align=center;verticalAlign=middle;resizable=0;points=[];autosize=1;" vertex="1" parent="1">
          <mxGeometry x="1396" y="779" width="70" height="20" as="geometry" />
        </mxCell>
        <mxCell id="22y18X0Yj5JrSiVgaEgC-12" value="&lt;font style=&quot;font-size: 22px&quot;&gt;cross(&lt;i&gt;&lt;b&gt;x&lt;/b&gt;&lt;/i&gt;,&lt;i&gt;&lt;b&gt;w&lt;/b&gt;&lt;/i&gt;)&lt;/font&gt;" style="text;html=1;align=center;verticalAlign=middle;resizable=0;points=[];autosize=1;" vertex="1" parent="1">
          <mxGeometry x="1280" y="693.5" width="120" height="20" as="geometry" />
        </mxCell>
      </root>
    </mxGraphModel>
  </diagram>
</mxfile>
